<svg xmlns="http://www.w3.org/2000/svg" data-bbox="0 0 512 512" height="512" width="512" viewBox="0 0 512 512" data-type="shape"><g><path d="M472.436 448.903a7.5 7.5 0 0 0-7.5 7.5c0 4.705-3.828 8.532-8.532 8.532H55.597c-4.705 0-8.532-3.828-8.532-8.532V87.661c0-4.143-3.358-7.5-7.5-7.5s-7.5 3.357-7.5 7.5v.517H7.5a7.5 7.5 0 0 0 0 15h24.564v17.064H7.5a7.5 7.5 0 0 0 0 15h24.564v17.064H7.5a7.5 7.5 0 0 0 0 15h24.564v17.064H7.5a7.5 7.5 0 0 0 0 15h24.564v17.064H7.5a7.5 7.5 0 0 0 0 15h24.564V248.5H7.5a7.5 7.5 0 0 0 0 15h24.564v17.064H7.5a7.5 7.5 0 0 0 0 15h24.564v17.064H7.5a7.5 7.5 0 0 0 0 15h24.564v17.064H7.5a7.5 7.5 0 0 0 0 15h24.564v17.064H7.5a7.5 7.5 0 0 0 0 15h24.564v17.064H7.5a7.5 7.5 0 0 0 0 15h24.564v32.581c0 12.976 10.557 23.532 23.532 23.532h32.581V504.5a7.5 7.5 0 0 0 15 0v-24.564h17.064V504.5a7.5 7.5 0 0 0 15 0v-24.564h17.065V504.5a7.5 7.5 0 0 0 15 0v-24.564h17.064V504.5a7.5 7.5 0 0 0 15 0v-24.564h17.064V504.5a7.5 7.5 0 0 0 15 0v-24.564H248.5V504.5a7.5 7.5 0 0 0 15 0v-24.564h17.064V504.5a7.5 7.5 0 0 0 15 0v-24.564h17.064V504.5a7.5 7.5 0 0 0 15 0v-24.564h17.064V504.5a7.5 7.5 0 0 0 15 0v-24.564h17.065V504.5a7.5 7.5 0 0 0 15 0v-24.564h17.064V504.5a7.5 7.5 0 0 0 15 0v-24.564h32.581c12.976 0 23.532-10.557 23.532-23.532a7.497 7.497 0 0 0-7.498-7.501z"></path><path d="M504.5 135.242a7.5 7.5 0 0 0 0-15h-24.564v-17.064H504.5a7.5 7.5 0 0 0 0-15h-24.564V55.597c0-12.976-10.557-23.532-23.532-23.532h-32.581V7.5a7.5 7.5 0 0 0-15 0v24.564h-17.064V7.5a7.5 7.5 0 0 0-15 0v24.564h-17.065V7.5a7.5 7.5 0 0 0-15 0v24.564H327.63V7.5a7.5 7.5 0 0 0-15 0v24.564h-17.064V7.5a7.5 7.5 0 0 0-15 0v24.564H263.5V7.5a7.5 7.5 0 0 0-15 0v24.564h-17.064V7.5a7.5 7.5 0 0 0-15 0v24.564h-17.064V7.5a7.5 7.5 0 0 0-15 0v24.564h-17.064V7.5a7.5 7.5 0 0 0-15 0v24.564h-17.065V7.5a7.5 7.5 0 0 0-15 0v24.564h-17.064V7.5a7.5 7.5 0 0 0-15 0v24.564H55.597c-12.976 0-23.532 10.557-23.532 23.532a7.5 7.5 0 0 0 15 0c0-4.705 3.828-8.532 8.532-8.532h400.807c4.705 0 8.532 3.828 8.532 8.532v368.742c0 4.143 3.358 7.5 7.5 7.5s7.5-3.357 7.5-7.5v-.517H504.5a7.5 7.5 0 0 0 0-15h-24.564v-17.064H504.5a7.5 7.5 0 0 0 0-15h-24.564v-17.064H504.5a7.5 7.5 0 0 0 0-15h-24.564v-17.064H504.5a7.5 7.5 0 0 0 0-15h-24.564v-17.064H504.5a7.5 7.5 0 0 0 0-15h-24.564V263.5H504.5a7.5 7.5 0 0 0 0-15h-24.564v-17.064H504.5a7.5 7.5 0 0 0 0-15h-24.564v-17.064H504.5a7.5 7.5 0 0 0 0-15h-24.564v-17.064H504.5a7.5 7.5 0 0 0 0-15h-24.564v-17.064H504.5z"></path><path d="M109.961 248.5c-3.139-9.308-11.946-16.032-22.3-16.032-12.976 0-23.532 10.557-23.532 23.532s10.557 23.532 23.532 23.532c10.354 0 19.16-6.724 22.3-16.032h66.394v17.064h-17.924a23.378 23.378 0 0 0-16.64 6.893l-3.586 3.586a23.378 23.378 0 0 0-10.463-2.462c-12.976 0-23.532 10.557-23.532 23.532 0 12.976 10.557 23.533 23.532 23.533 12.976 0 23.533-10.557 23.533-23.533 0-3.757-.89-7.309-2.463-10.463l3.587-3.586a8.476 8.476 0 0 1 6.033-2.499h17.924v24.564c0 8.556 6.96 15.517 15.516 15.517h24.564v17.923a8.477 8.477 0 0 1-2.499 6.033l-3.586 3.586a23.379 23.379 0 0 0-10.463-2.463c-12.976 0-23.532 10.557-23.532 23.532s10.557 23.532 23.532 23.532 23.532-10.557 23.532-23.532c0-3.757-.89-7.309-2.463-10.463l3.586-3.586a23.378 23.378 0 0 0 6.893-16.64v-17.923H248.5v66.394c-9.308 3.139-16.032 11.946-16.032 22.3 0 12.976 10.557 23.532 23.532 23.532s23.532-10.557 23.532-23.532c0-10.354-6.724-19.161-16.032-22.3v-66.394h17.064v17.923a23.378 23.378 0 0 0 6.893 16.64l3.586 3.586a23.379 23.379 0 0 0-2.463 10.463c0 12.976 10.557 23.532 23.532 23.532s23.532-10.557 23.532-23.532-10.557-23.532-23.532-23.532c-3.757 0-7.309.89-10.463 2.463l-3.586-3.586a8.481 8.481 0 0 1-2.499-6.034v-17.923h24.564c8.556 0 15.516-6.961 15.516-15.517v-24.564h17.924c2.279 0 4.421.888 6.033 2.499l3.586 3.586a23.379 23.379 0 0 0-2.463 10.463c0 12.976 10.557 23.533 23.533 23.533s23.532-10.557 23.532-23.533-10.557-23.532-23.532-23.532c-3.757 0-7.309.89-10.463 2.462l-3.586-3.586a23.378 23.378 0 0 0-16.64-6.893h-17.924V263.5h66.394c3.139 9.308 11.946 16.032 22.3 16.032 12.976 0 23.532-10.557 23.532-23.532s-10.557-23.532-23.532-23.532c-10.354 0-19.16 6.724-22.3 16.032h-66.394v-17.064h17.924a23.378 23.378 0 0 0 16.64-6.893l3.586-3.586a23.378 23.378 0 0 0 10.463 2.462c12.976 0 23.532-10.557 23.532-23.532 0-12.976-10.557-23.533-23.532-23.533-12.976 0-23.533 10.557-23.533 23.533 0 3.757.89 7.309 2.463 10.463l-3.587 3.586a8.476 8.476 0 0 1-6.033 2.499h-17.924v-24.564c0-8.556-6.96-15.517-15.516-15.517h-24.564v-17.923c0-2.279.888-4.422 2.499-6.033l3.586-3.586a23.379 23.379 0 0 0 10.463 2.463c12.976 0 23.532-10.557 23.532-23.532s-10.557-23.532-23.532-23.532-23.532 10.557-23.532 23.532c0 3.757.89 7.309 2.463 10.463l-3.586 3.586a23.378 23.378 0 0 0-6.893 16.64v17.923H263.5v-66.394c9.308-3.139 16.032-11.946 16.032-22.3 0-12.976-10.557-23.532-23.532-23.532s-23.532 10.557-23.532 23.532c0 10.354 6.724 19.161 16.032 22.3v66.394h-17.064v-17.923a23.378 23.378 0 0 0-6.893-16.64l-3.586-3.586a23.379 23.379 0 0 0 2.463-10.463c0-12.976-10.557-23.532-23.532-23.532s-23.532 10.557-23.532 23.532 10.557 23.532 23.532 23.532c3.757 0 7.309-.89 10.463-2.463l3.586 3.586a8.481 8.481 0 0 1 2.499 6.034v17.923h-24.564c-8.556 0-15.516 6.961-15.516 15.517v24.564h-17.924a8.479 8.479 0 0 1-6.033-2.499l-3.586-3.586a23.379 23.379 0 0 0 2.463-10.463c0-12.976-10.557-23.533-23.533-23.533s-23.532 10.557-23.532 23.533 10.557 23.532 23.532 23.532c3.757 0 7.309-.89 10.463-2.462l3.586 3.586a23.378 23.378 0 0 0 16.64 6.893h17.924V248.5h-66.395zm-22.3 16.032c-4.705 0-8.532-3.828-8.532-8.532s3.828-8.532 8.532-8.532 8.532 3.828 8.532 8.532-3.827 8.532-8.532 8.532zm40.081 56.114c-4.705 0-8.532-3.828-8.532-8.533s3.828-8.532 8.532-8.532c4.705 0 8.533 3.828 8.533 8.532s-3.828 8.533-8.533 8.533zm72.145 72.144c-4.705 0-8.532-3.827-8.532-8.532 0-4.704 3.828-8.532 8.532-8.532s8.532 3.828 8.532 8.532c0 4.705-3.827 8.532-8.532 8.532zM256 432.871c-4.705 0-8.532-3.828-8.532-8.532 0-4.705 3.828-8.532 8.532-8.532s8.532 3.827 8.532 8.532c0 4.704-3.827 8.532-8.532 8.532zm64.645-48.613c0 4.705-3.828 8.532-8.532 8.532s-8.532-3.827-8.532-8.532c0-4.704 3.828-8.532 8.532-8.532s8.532 3.828 8.532 8.532zm72.146-72.145c0 4.705-3.828 8.533-8.532 8.533-4.705 0-8.533-3.828-8.533-8.533s3.828-8.532 8.533-8.532c4.704 0 8.532 3.827 8.532 8.532zm31.548-64.645c4.705 0 8.532 3.828 8.532 8.532s-3.828 8.532-8.532 8.532-8.532-3.828-8.532-8.532 3.827-8.532 8.532-8.532zm-40.081-56.114c4.705 0 8.532 3.828 8.532 8.533s-3.828 8.532-8.532 8.532c-4.705 0-8.533-3.828-8.533-8.532s3.828-8.533 8.533-8.533zm-72.145-72.144c4.705 0 8.532 3.827 8.532 8.532 0 4.704-3.828 8.532-8.532 8.532s-8.532-3.828-8.532-8.532c0-4.705 3.827-8.532 8.532-8.532zM256 79.129c4.705 0 8.532 3.828 8.532 8.532 0 4.705-3.828 8.532-8.532 8.532s-8.532-3.827-8.532-8.532c0-4.704 3.827-8.532 8.532-8.532zm-64.645 48.613c0-4.705 3.828-8.532 8.532-8.532s8.532 3.827 8.532 8.532c0 4.704-3.828 8.532-8.532 8.532s-8.532-3.828-8.532-8.532zm-72.146 72.145c0-4.705 3.828-8.533 8.532-8.533 4.705 0 8.533 3.828 8.533 8.533s-3.828 8.532-8.533 8.532c-4.704 0-8.532-3.827-8.532-8.532zm72.146-8.016c0-.285.231-.517.516-.517h128.258c.285 0 .516.231.516.517v128.258a.517.517 0 0 1-.516.517H191.871a.516.516 0 0 1-.516-.517V191.871z"></path></g></svg>